<svg id="Capa_1" data-name="Capa 1" xmlns="http://www.w3.org/2000/svg" xmlns:xlink="http://www.w3.org/1999/xlink" viewBox="0 0 971.81 833.83"><defs><style>.cls-1{fill:url(#linear-gradient);}.cls-2{fill:url(#linear-gradient-2);}.cls-3{fill:url(#linear-gradient-3);}.cls-4{fill:url(#linear-gradient-4);}.cls-5{fill:url(#linear-gradient-5);}.cls-6{fill:url(#linear-gradient-6);}.cls-7{fill:#fff;}.cls-8{fill:url(#linear-gradient-7);}.cls-9{fill:#efc9c6;}.cls-10{fill:url(#linear-gradient-8);}.cls-11{fill:url(#linear-gradient-9);}.cls-12{fill:url(#linear-gradient-10);}.cls-13{fill:url(#linear-gradient-11);}.cls-14{fill:url(#linear-gradient-12);}.cls-15{fill:#db537e;}.cls-16{fill:url(#linear-gradient-13);}.cls-17{fill:url(#linear-gradient-14);}.cls-18{fill:url(#linear-gradient-15);}.cls-19{fill:url(#linear-gradient-16);}</style><linearGradient id="linear-gradient" x1="780.63" y1="61.58" x2="780.63" y2="270.75" gradientUnits="userSpaceOnUse"><stop offset="0" stop-color="#e279a4"/><stop offset="1" stop-color="#8659c7"/></linearGradient><linearGradient id="linear-gradient-2" x1="780.63" y1="56.67" x2="780.63" y2="749.53" gradientUnits="userSpaceOnUse"><stop offset="0" stop-color="#68304f"/><stop offset="1" stop-color="#451c4f"/></linearGradient><linearGradient id="linear-gradient-3" x1="784.25" y1="105.41" x2="784.25" y2="239.31" gradientUnits="userSpaceOnUse"><stop offset="0" stop-color="#b3aaf4"/><stop offset="1" stop-color="#826bab"/></linearGradient><linearGradient id="linear-gradient-4" x1="196.38" y1="61.58" x2="196.38" y2="270.75" xlink:href="#linear-gradient"/><linearGradient id="linear-gradient-5" x1="196.38" y1="56.67" x2="196.38" y2="749.53" xlink:href="#linear-gradient-2"/><linearGradient id="linear-gradient-6" x1="192.8" y1="105.41" x2="192.8" y2="239.31" xlink:href="#linear-gradient-3"/><linearGradient id="linear-gradient-7" x1="491.76" y1="56.67" x2="491.76" y2="749.53" xlink:href="#linear-gradient-2"/><linearGradient id="linear-gradient-8" x1="233.53" y1="371.06" x2="233.53" y2="739.07" xlink:href="#linear-gradient"/><linearGradient id="linear-gradient-9" x1="746.93" y1="371.06" x2="746.93" y2="739.07" xlink:href="#linear-gradient"/><linearGradient id="linear-gradient-10" x1="268.04" y1="56.67" x2="268.04" y2="749.53" xlink:href="#linear-gradient-2"/><linearGradient id="linear-gradient-11" x1="708.29" y1="56.67" x2="708.29" y2="749.53" xlink:href="#linear-gradient-2"/><linearGradient id="linear-gradient-12" x1="491.76" y1="56.67" x2="491.76" y2="749.53" xlink:href="#linear-gradient-2"/><linearGradient id="linear-gradient-13" x1="492.82" y1="56.67" x2="492.82" y2="749.53" xlink:href="#linear-gradient-2"/><linearGradient id="linear-gradient-14" x1="462.59" y1="56.67" x2="462.59" y2="749.53" xlink:href="#linear-gradient-2"/><linearGradient id="linear-gradient-15" x1="522.04" y1="56.67" x2="522.04" y2="749.53" xlink:href="#linear-gradient-2"/><linearGradient id="linear-gradient-16" x1="493.12" y1="56.67" x2="493.12" y2="749.53" xlink:href="#linear-gradient-2"/></defs><path class="cls-1" d="M881.34,298.28c-56.59,57.86-124,33-181.87-23.65-17.22-16.85-31.66-34.61-42-52.77-12.52-22.09-18.89-44.77-16.68-67.13,2.07-21,11.72-41.72,31-61.4,47.59-48.66,136.23-63,202.85,2.2S928.94,249.63,881.34,298.28Z"/><path class="cls-2" d="M809.82,356c-40.93,0-85.08-22-127.67-63.69C662.53,273.16,647,253.56,636,234.07c-15.75-27.78-22.4-55.29-19.78-81.77,2.73-27.7,15.48-53.37,37.91-76.3,30.56-31.24,73.49-49.16,117.78-49.16,44.5,0,86,17.63,120.12,51,35.48,34.71,54.52,79.37,53.62,125.77-.81,41.78-17.78,82.62-46.55,112C872.82,342.43,842.8,356,809.82,356Zm-38-279.62a115.64,115.64,0,0,0-82.34,34.25c-14.55,14.87-22.41,30.08-24,46.51-1.59,16.11,3,33.76,13.58,52.47,8.75,15.44,21.44,31.34,37.72,47.27,33.15,32.42,65.31,49.56,93,49.56,19.41,0,37-8.35,53.81-25.52,20-20.48,31.86-49,32.43-78.33.45-23.06-5.91-57.28-38.73-89.38C832.7,89.14,803.14,76.41,771.87,76.41Z"/><path class="cls-3" d="M828.32,234.61c-24.77,25.32-54.26,14.42-79.58-10.35a106.53,106.53,0,0,1-18.36-23.09c-5.47-9.66-8.26-19.59-7.29-29.37.9-9.19,5.12-18.25,13.55-26.87,20.82-21.29,59.6-27.55,88.76,1S849.14,213.32,828.32,234.61Z"/><path class="cls-4" d="M98.27,306.93c57.86,56.6,124.7,30.2,181.3-27.66,16.85-17.23,30.9-35.31,40.78-53.69,12-22.36,17.9-45.17,15.19-67.47-2.53-21-12.63-41.46-32.32-60.71-48.65-47.6-137.58-59.95-202.75,6.68S49.61,259.34,98.27,306.93Z"/><path class="cls-5" d="M168.48,363.12h0c-32,0-61.44-12.95-87.54-38.47-29.41-28.78-47.28-69.23-49-111C30,167.3,48.05,122.23,82.75,86.75c34.34-35.1,76.72-53.65,122.58-53.65,43,0,85,17,115.22,46.58,22.93,22.43,36.25,47.82,39.6,75.45,3.2,26.41-2.85,54.07-18,82.19C331.57,257,316.47,277,297.29,296.59,254.72,340.11,210.18,363.12,168.48,363.12ZM205.33,82.66c-22.46,0-55.82,6.72-87.14,38.75-32.11,32.81-37.7,67.16-36.74,90.2,1.21,29.28,13.66,57.56,34.15,77.6,16.74,16.38,34,24.34,52.88,24.34,28.05,0,60.34-17.84,93.37-51.61,15.93-16.29,28.27-32.47,36.67-48.1,10.19-18.94,14.37-36.69,12.42-52.75-2-16.39-10.17-31.43-25-46C264.81,94.49,235.45,82.66,205.33,82.66Z"/><path class="cls-6" d="M149.87,242.1c25.32,24.77,54.57,13.21,79.33-12.1a106.61,106.61,0,0,0,17.85-23.49c5.26-9.78,7.83-19.77,6.64-29.53-1.1-9.16-5.53-18.13-14.14-26.56-21.29-20.82-60.2-26.23-88.71,2.92S128.59,221.28,149.87,242.1Z"/><path class="cls-7" d="M894.89,475.18q.15,13.57-.6,26.45c-5.26,92-44,158-104.68,202.8-73,53.91-177.86,77.22-294.5,78.51-66.28.73-128.92-5.73-184.26-21-41.72-11.54-79.29-28.12-111.16-50.42a258,258,0,0,1-51.86-47.7c-34.36-41.87-55.4-96.09-58.75-164.66q-.37-7.41-.45-15C86.56,296.85,231.13,96.6,487.5,93.77S892.83,288,894.89,475.18Z"/><path class="cls-8" d="M485.08,807.78c-67.26,0-128.1-7.4-180.84-22-45.63-12.61-85.59-30.78-118.76-54a283.82,283.82,0,0,1-56.82-52.3C89.45,631.7,67.8,571.42,64.33,500.33c-.26-5.11-.42-10.5-.48-16C62.72,382.1,102.47,279.55,172.91,203a404.42,404.42,0,0,1,133.73-96c55-24.49,115.71-37.28,180.59-38,1.9,0,3.83,0,5.72,0C557,69,617.27,80.89,672,104.43a404.28,404.28,0,0,1,134,93.24c71.12,74.77,112.56,175.82,113.67,277.24.11,9.58-.11,19.06-.64,28.17-5.41,94.63-44,169.09-114.7,221.29-37.75,27.87-84.68,49.09-139.49,63.06-50.1,12.77-107.11,19.6-169.46,20.29C491.94,807.76,488.5,807.78,485.08,807.78ZM493,118.52l-5.18,0c-141.78,1.56-229.64,65-278.39,118-62,67.36-97,157.48-96,247.25,0,4.82.19,9.55.42,14.06,3,60.27,20.83,110.79,53.16,150.19a233.68,233.68,0,0,0,46.92,43.12c28.52,20,63.36,35.72,103.54,46.83,48.44,13.41,104.84,20.2,167.63,20.2,3.24,0,6.5,0,9.76-.05,119.73-1.32,216.57-26.8,280.05-73.66,58.28-43,90.13-105,94.66-184.28.47-8,.66-16.33.56-24.77C868.18,300,726.57,118.52,493,118.52Z"/><path class="cls-9" d="M350.61,707.34a129.54,129.54,0,0,1-11.16,54.24C250,736.83,174.83,694.66,122.73,631.14a126,126,0,0,1,99.68-50.94C292.43,579.43,349.83,636.36,350.61,707.34Z"/><path class="cls-9" d="M637.9,704.17a129.5,129.5,0,0,0,12.36,54c88.92-26.72,163.11-70.54,213.79-135.2a126,126,0,0,0-100.79-48.72C693.25,575,637.12,633.19,637.9,704.17Z"/><path class="cls-10" d="M377.33,504.91c-3.25,27.24-16.72,52.13-31.2,75.44a755.26,755.26,0,0,1-56.84,79.55c-17.54,21.47-38,43-64.93,49.48a90.78,90.78,0,0,1-24.67,2.1,258,258,0,0,1-51.86-47.7c-34.36-41.87-55.4-96.09-58.75-164.66q3.87-7.39,8.43-14.35c24.59-37.57,62.22-65.39,103.3-83.5,25.81-11.36,54-19.24,82.05-16C339,391.77,384,448.84,377.33,504.91Z"/><path class="cls-11" d="M894.29,501.63c-5.26,92-44,158-104.68,202.8-2,.23-4,.42-5.94.55a92.09,92.09,0,0,1-25.73-1.49c-27.09-5.87-48-27-66-48a755.49,755.49,0,0,1-58.59-78.27c-15-23-29-47.57-32.85-74.74-7.93-55.91,35.87-114,91.8-121.69,27.93-3.86,56.33,3.4,82.38,14.19,41.48,17.19,79.72,44.18,105.12,81.19A173.15,173.15,0,0,1,894.29,501.63Z"/><circle class="cls-12" cx="268.04" cy="501.51" r="61.72"/><circle class="cls-13" cx="708.29" cy="496.65" r="61.72"/><path class="cls-14" d="M485.08,807.78c-67.26,0-128.1-7.4-180.84-22C228.37,764.8,169.3,729,128.67,679.49c-42.15-51.37-64-117-64.82-195.13C62.72,382.1,102.47,279.55,172.91,203a404.42,404.42,0,0,1,133.73-96c55-24.49,115.71-37.28,180.59-38,1.9,0,3.83,0,5.72,0C557,69,617.27,80.89,672,104.43a404.28,404.28,0,0,1,134,93.24c71.12,74.77,112.56,175.82,113.67,277.24.64,57.76-10.4,109.31-32.83,153.21-21.19,41.49-52.67,76.5-93.58,104.06-37.38,25.19-83,44.38-135.61,57-48.31,11.62-102.9,17.84-162.27,18.5C491.94,807.76,488.5,807.78,485.08,807.78ZM493,118.52l-5.18,0c-141.78,1.56-229.64,65-278.39,118-62,67.36-97,157.48-96,247.25.73,66.55,18.76,121.81,53.58,164.25,34,41.48,84.64,71.75,150.46,90,48.44,13.41,104.84,20.2,167.63,20.2,3.24,0,6.5,0,9.76-.05,113.85-1.26,207.47-24.46,270.73-67.08,70.42-47.46,105.6-120,104.54-215.63C868.18,300,726.57,118.52,493,118.52Z"/><path class="cls-15" d="M525,613.89c.25,22.77-20.28,33.8-31.77,33.92s-32.25-10.44-32.5-33.21S476.88,585,492.5,584.8,524.71,591.12,525,613.89Z"/><path class="cls-16" d="M493,657.73c-8.74,0-19-4-26.71-10.4a42.32,42.32,0,0,1-15.5-32.62c-.27-24.28,15.67-39.54,41.61-39.83h.71c25.5,0,41.51,14.91,41.77,38.9a42.34,42.34,0,0,1-14.93,33.08c-7.68,6.61-17.89,10.77-26.64,10.87Zm.11-63h-.49c-22.23.24-22.06,14.95-22,19.78.18,16.68,15.88,23.41,22.39,23.41h.09c3.35,0,9.14-1.95,13.94-6.07a22.25,22.25,0,0,0,8-17.83C515,608.72,514.83,594.71,493.1,594.71Z"/><path class="cls-7" d="M490.91,562.08c2.11,14.11,2.14,27.17-4,40.4-5.74,12.34-19.3,20.36-33.07,17.57-5.57-1.13-10.5-4.68-14.42-8.8A22.19,22.19,0,0,1,433,595.93"/><path class="cls-17" d="M459.22,630.5a36.75,36.75,0,0,1-7.36-.74c-6.89-1.39-13.68-5.43-19.62-11.67a32.12,32.12,0,0,1-9.18-22.33,9.91,9.91,0,0,1,19.82.33,12.4,12.4,0,0,0,3.71,8.32c3.13,3.29,6.32,5.34,9.21,5.92,8.74,1.78,18-3.29,22.11-12,4.51-9.71,5.44-19.78,3.2-34.75a9.91,9.91,0,0,1,19.6-2.94c2,13.34,3,29.24-4.82,46C489.09,621.26,474.42,630.5,459.22,630.5Z"/><path class="cls-7" d="M493.19,562.06c-1.8,14.15-1.54,27.2,4.9,40.29,6,12.22,19.74,19.94,33.45,16.84,5.54-1.25,10.39-4.91,14.22-9.11a22.19,22.19,0,0,0,6.1-15.47"/><path class="cls-18" d="M525.55,629.77a41.09,41.09,0,0,1-36.35-23c-8.18-16.63-7.55-32.55-5.85-45.93A9.91,9.91,0,0,1,503,563.31c-1.91,15-.76,25.06,4,34.67,4.25,8.65,13.66,13.51,22.37,11.54,2.88-.65,6-2.76,9.07-6.12A12.4,12.4,0,0,0,542,595a9.92,9.92,0,0,1,19.82-.77,32.14,32.14,0,0,1-8.69,22.52c-5.8,6.38-12.5,10.56-19.36,12.11A37.13,37.13,0,0,1,525.55,629.77Z"/><path class="cls-19" d="M506.37,578.94a39.15,39.15,0,0,1-13.2,2.79,36.06,36.06,0,0,1-9.77-1.8c-10.16-2.87-21.26-9.56-21.39-21.49a14.11,14.11,0,0,1,4.29-10.69c3-2.88,7.27-4.84,12.43-6a66.91,66.91,0,0,1,14.19-1.51c17.18-.19,31.16,4.41,31.31,17.56.07,6.34-3.55,12.09-8.38,16A36.69,36.69,0,0,1,506.37,578.94Z"/></svg>