<svg id="Capa_1" data-name="Capa 1" xmlns="http://www.w3.org/2000/svg" viewBox="0 0 440 391.35"><defs><style>.cls-1,.cls-8{fill:none;}.cls-1,.cls-10,.cls-2,.cls-4,.cls-8,.cls-9{stroke:#772c4f;stroke-linecap:round;stroke-linejoin:round;}.cls-1,.cls-10,.cls-9{stroke-width:9.14px;}.cls-2,.cls-6{fill:#ac7889;}.cls-2,.cls-4,.cls-8{stroke-width:22.85px;}.cls-3{fill:#ffd1b8;}.cls-10,.cls-4{fill:#fff;}.cls-5{fill:#ffdcda;}.cls-7{fill:#772c4f;}.cls-9{fill:#fb5281;}</style></defs><title>panda</title><path class="cls-1" d="M304.6,114.07S251,85.12,220.05,73.83"/><path class="cls-1" d="M228.44,268.58s-60.53,6.66-92.43,15"/><path class="cls-2" d="M400.42,122.74c-21.37,30.59-53.91,24.35-84.5,3a112.45,112.45,0,0,1-23.07-20.84c-7.36-9.1-12-18.94-12.66-29.27-.64-9.71,2.18-19.86,9.45-30.27,18-25.72,57.21-38.93,92.44-14.32S418.4,97,400.42,122.74Z"/><path class="cls-3" d="M371.5,97.78c-9.35,13.39-23.59,10.66-37,1.31A49.58,49.58,0,0,1,324.43,90c-3.22-4-5.24-8.29-5.54-12.81-.28-4.25.95-8.69,4.14-13.24,7.86-11.26,25-17,40.44-6.27S379.36,86.53,371.5,97.78Z"/><path class="cls-2" d="M44.9,185.8c30.59,21.38,59,4.32,80.37-26.27a112.11,112.11,0,0,0,14.5-27.5c3.78-11.07,4.73-21.9,1.81-31.84-2.73-9.33-8.87-17.9-19.28-25.17-25.72-18-67.11-16.88-91.72,18.35S19.17,167.83,44.9,185.8Z"/><path class="cls-3" d="M63.48,152.42c13.38,9.35,25.81,1.89,35.16-11.5a48.77,48.77,0,0,0,6.35-12c1.65-4.84,2.07-9.58.79-13.93-1.2-4.08-3.88-7.83-8.44-11C86.09,96.08,68,96.56,57.21,112S52.22,144.56,63.48,152.42Z"/><path class="cls-4" d="M419.62,202.18q1.1,6.16,1.73,12.08c4.55,42.26-8.08,75.18-32.3,100.14-29.15,30-75.07,48.56-128,58-30.09,5.34-59.07,7.13-85.4,4.34-19.85-2.09-38.19-6.8-54.37-14.54a119,119,0,0,1-27.19-17.78c-18.79-16.45-32.45-39.52-39.15-70.46-.49-2.22-.93-4.49-1.34-6.8-15.08-85,35.55-187,152-207.65S404.54,117.18,419.62,202.18Z"/><path class="cls-5" d="M189.91,348.88a59.65,59.65,0,0,1-1,25.51c-42.57-4.5-79.93-18-108.43-43A58.08,58.08,0,0,1,122,300.73C153.79,295.09,184.19,316.65,189.91,348.88Z"/><path class="cls-5" d="M320.34,325.74a59.73,59.73,0,0,0,9.7,23.62c38.43-18.87,68.86-44.4,87-77.64a58.11,58.11,0,0,0-49.52-14.55C335.76,262.81,314.63,293.51,320.34,325.74Z"/><path class="cls-6" d="M186.77,254.78c.58,12.64-3.66,25-8.49,36.67a348.56,348.56,0,0,1-19.84,40.48c-6.36,11.09-14,22.43-25.8,27.4a41.36,41.36,0,0,1-11.06,2.82,118.83,118.83,0,0,1-27.19-17.78c-18.79-16.45-32.46-39.52-39.16-70.46.8-2.43,1.72-4.83,2.75-7.16,8.35-18.94,23.36-34.44,40.68-45.78,10.88-7.12,23.13-12.83,36.11-13.47C160.78,206.22,185.59,228.77,186.77,254.78Z"/><path class="cls-6" d="M421.67,214.26c4.56,42.26-8.08,75.18-32.3,100.14-.88.26-1.77.49-2.66.7a42.48,42.48,0,0,1-11.82,1.27c-12.76-.63-23.87-8.64-33.65-16.87a348.69,348.69,0,0,1-32.56-31.18c-8.55-9.32-16.78-19.45-20.58-31.51-7.83-24.83,7.71-54.54,32.56-62.29,12.41-3.86,25.88-2.7,38.54.24,20.17,4.69,39.6,14.07,53.95,29A79.86,79.86,0,0,1,421.67,214.26Z"/><circle class="cls-7" cx="136.81" cy="261.49" r="28.46"/><circle class="cls-7" cx="336.69" cy="226.04" r="28.46"/><path class="cls-8" d="M419.94,202.18c17.93,101.08-57.51,152.24-158.6,170.17-30.09,5.34-59.07,7.13-85.4,4.34-32-3.38-60.12-13.54-81.55-32.32-20.15-17.64-34.4-42.88-40.5-77.26-15.08-85,35.56-187,152-207.65S404.87,117.18,419.94,202.18Z"/><path class="cls-9" d="M262.15,293.2c1.84,10.34-6.67,16.91-11.88,17.83s-15.46-2.31-17.3-12.65,5.13-14.7,12.22-16S260.32,282.87,262.15,293.2Z"/><path class="cls-10" d="M242.76,272.21c2,6.26,3,12.19,1.22,18.68-1.68,6-7.24,10.72-13.71,10.49a13.17,13.17,0,0,1-7.22-2.92A10.17,10.17,0,0,1,219,292"/><path class="cls-10" d="M243.79,272c.25,6.57,1.35,12.49,5.27,18,3.66,5.1,10.49,7.57,16.49,5.13a13.24,13.24,0,0,0,5.78-5.22,10.29,10.29,0,0,0,1.61-7.49"/><path class="cls-7" d="M251.06,278.71a17.85,17.85,0,0,1-5.79,2.26,16.36,16.36,0,0,1-4.58-.08c-4.84-.53-10.39-2.74-11.35-8.15a6.49,6.49,0,0,1,1.14-5.19,12,12,0,0,1,5.2-3.68A31.38,31.38,0,0,1,242,262.1c7.8-1.38,14.5-.34,15.56,5.63a9.58,9.58,0,0,1-2.6,7.89A16.91,16.91,0,0,1,251.06,278.71Z"/></svg>