<svg id="Capa_1" data-name="Capa 1" xmlns="http://www.w3.org/2000/svg" viewBox="0 0 461.73 403.15"><defs><style>.cls-1,.cls-10{fill:none;}.cls-1,.cls-10,.cls-2,.cls-3,.cls-5,.cls-8,.cls-9{stroke:#772c4f;stroke-linecap:round;stroke-linejoin:round;}.cls-1{stroke-width:9.14px;}.cls-2{fill:#643420;}.cls-10,.cls-2,.cls-3,.cls-5{stroke-width:22.14px;}.cls-3,.cls-6,.cls-9{fill:#fff;}.cls-4{fill:#8e5f36;}.cls-5{fill:#ea7023;}.cls-7{fill:#772c4f;}.cls-8{fill:#fb5281;}.cls-8,.cls-9{stroke-width:8.85px;}</style></defs><title>redpanda</title><path class="cls-1" d="M346.13,125s60.52,6.77,92.41,15.17"/><line class="cls-1" x1="325.48" y1="116.97" x2="387.23" y2="299.28"/><path class="cls-1" d="M282.27,331.18s60.52,6.77,92.4,15.16"/><path class="cls-1" d="M367.9,264.71s-123.23,25.13-162.54,27.73"/><path class="cls-2" d="M394.48,185.52c-22.49,28.29-53.58,20.31-81.88-2.19a108.45,108.45,0,0,1-21.05-21.52c-6.57-9.24-10.44-19-10.48-29.06-.05-9.42-32.23-27.65-24.58-37.28,25.46-32,148.26-38.23,173.2-15C457.32,106.22,423.15,149.45,394.48,185.52Z"/><path class="cls-3" d="M414.7,201.51C392.38,230,358,214.45,329.74,192a109,109,0,0,1-21.05-21.52c-6.57-9.24-10.44-19-10.49-29.06,0-9.43,3.3-19.07,10.95-28.7,25.46-32,103.42-43.06,122.93-29C446.57,94.09,438.64,171,414.7,201.51Z"/><path class="cls-4" d="M388.16,187.74c-15.49,19.49-32.52,17.48-46.6,6.29a40.17,40.17,0,0,1-10-11.27,25.72,25.72,0,0,1-3.28-16.89c.85-5.79,3.66-12,8.93-18.66,17.54-22.06,55.24-43.41,67.33-31.45C417.91,129,407.91,162.89,388.16,187.74Z"/><path class="cls-2" d="M78.62,141.8c14,33.34,46.05,34.1,79.39,20.14a108.5,108.5,0,0,0,26.11-15c8.84-7.1,15.22-15.47,18-25.11,2.6-9.06,38.53-17.87,33.78-29.21C220.08,54.89,103.57,15.56,73.27,31.14,39.68,48.42,60.82,99.31,78.62,141.8Z"/><path class="cls-3" d="M54.82,151.7c13.75,33.43,51,27.85,84.36,13.89a109.22,109.22,0,0,0,26.11-15c8.83-7.11,15.21-15.47,18-25.12,2.6-9.06,2-19.25-2.75-30.59C164.72,57.15,92.68,25.35,70.09,33.57,53.31,39.67,40.07,115.84,54.82,151.7Z"/><path class="cls-4" d="M84.1,145.66c9.62,23,26.55,25.66,43.14,18.71A40,40,0,0,0,140,156.24a25.69,25.69,0,0,0,7.75-15.35c.75-5.81-.26-12.58-3.53-20.39C133.28,94.5,102.79,63.72,87.91,72,71.41,81.06,71.84,116.38,84.1,145.66Z"/><path class="cls-5" d="M409.81,316.32c-.32,2.33-.72,4.55-1.2,6.77-5.2,23.32-19.45,38.47-39.57,47.26-24.16,10.51-56.79,11.8-92.09,6.92a278,278,0,0,1-34.31-6.85q-17.13-.71-35-3.2a357,357,0,0,1-39.43-7.65,270.19,270.19,0,0,1-38.86-2.74c-20-2.77-38.73-7.23-54.87-13.62-12.16-4.82-22.92-10.77-31.67-17.88A74.28,74.28,0,0,1,29,310.77c-8.76-12.25-13-27.1-11.37-44.79.09-1.29.27-2.56.45-3.87,2.75-19.87,13.15-39.17,29.85-54.2,11.66-82.67,88.68-161.27,201.91-145.6C363.19,78,416,174.88,404.51,257.71c-.53,3.86-1.17,7.53-1.9,11.14A87.4,87.4,0,0,1,409.81,316.32Z"/><path class="cls-6" d="M405.09,347.76C395.5,369,373.3,382.38,350.45,387s-46.43,1.58-69.38-2.4q-30.26-5.19-60-12.51c-5.75-1.42-11.09-3.15-16.5-5.06a172.06,172.06,0,0,1-17.22.39q-26.82-.9-53.46-3.51c-2.6-.23-5.16-.49-7.76-.76-23.13-2.4-46.69-5.92-67.43-16.53a87.91,87.91,0,0,1-25.34-19.37c-8.54-9.36-14.66-20.67-16.59-33.22-1.67-11.18,0-22.62,2.69-33.64,2.33-9.42,5.42-18.83,11-26.77,7-9.89,17.35-16.86,27.66-23.21,3-1.86,6.28-3.73,9.85-3.64,5,.11,9,4.06,12.12,8,5.81,7.42,9.25,15.85,13.9,23.56a46.21,46.21,0,0,0,11.57,13.62,50.69,50.69,0,0,0,14.67,7.66,71.89,71.89,0,0,0,8.05,2.23,86.77,86.77,0,0,0,15.79,1.87,11.61,11.61,0,0,0,1.77.11c12.11.34,23.17-2.73,34.19-5.81,10.6-3,21.15-5.92,32.63-5.85a50,50,0,0,1,7.74.58,49.4,49.4,0,0,1,7.56,1.53c11.07,3.05,20.42,8.77,29.82,14.5,9.77,5.95,19.58,11.91,31.33,14.88a11.36,11.36,0,0,0,1.73.38,86.07,86.07,0,0,0,15.7,2.48c8.42.5,16.89-.3,24.55-3.35,14.9-5.94,22-19.66,34.61-28.86,4-2.93,9-5.65,13.84-4.39,3.41.87,6.08,3.57,8.48,6.18,8.2,8.91,16.27,18.43,20.32,29.85,3.2,9.16,3.67,19,3.31,28.75C411.23,326,409.78,337.46,405.09,347.76Z"/><circle class="cls-7" cx="126.64" cy="229.54" r="27.56"/><circle class="cls-7" cx="314.83" cy="255.59" r="27.56"/><path class="cls-8" d="M232.68,296.16c-1.39,10.07-11.19,13.59-16.27,12.88s-13.56-6.74-12.16-16.82,9.11-12,16-11.06S234.08,286.09,232.68,296.16Z"/><path class="cls-9" d="M221.07,271c0,6.37-.85,12.14-4.44,17.57-3.35,5.07-9.87,7.72-15.77,5.58a12.73,12.73,0,0,1-5.79-4.84,9.89,9.89,0,0,1-1.83-7.19"/><path class="cls-9" d="M222.08,271.17c-1.74,6.13-2.48,11.91-.5,18.12,1.85,5.79,7.4,10.11,13.66,9.65a12.79,12.79,0,0,0,6.88-3.09,9.9,9.9,0,0,0,3.72-6.43"/><path class="cls-7" d="M226.78,279.49a17.12,17.12,0,0,1-6,.36,16,16,0,0,1-4.2-1.44c-4.3-1.94-8.76-5.62-8-10.9a6.3,6.3,0,0,1,2.61-4.44,11.51,11.51,0,0,1,5.89-1.84,29.62,29.62,0,0,1,6.36.26c7.6,1.05,13.47,4,12.67,9.83a9.28,9.28,0,0,1-4.76,6.5A16.22,16.22,0,0,1,226.78,279.49Z"/><path class="cls-6" d="M278.13,225.2c-10-6.4-1.33-20.12,9.4-22.49,4.6-1,16.81-1.73,20.09,2.77,3.93,5.38-3.68,14.57-7.6,17.49-5,3.75-11.69,6-17.7,4.11A17,17,0,0,1,278.13,225.2Z"/><path class="cls-6" d="M180,211.62c11.32-3.46,6.74-19-2.94-24.2-4.15-2.22-15.71-6.23-20.09-2.79-5.24,4.11-.42,15,2.57,18.9,3.83,5,9.62,8.92,15.91,8.76A17.19,17.19,0,0,0,180,211.62Z"/><path class="cls-4" d="M133.85,363.9c-2.6-.23-5.16-.49-7.76-.76-23.13-2.4-46.69-5.92-67.43-16.53a87.91,87.91,0,0,1-25.34-19.37,53.2,53.2,0,0,1-2-6.94c-4.6-21.06,4-43.74,19.27-58.87C62.41,249.75,77.75,242.22,94,238.3a46.21,46.21,0,0,0,11.57,13.62,50.69,50.69,0,0,0,14.67,7.66A58.67,58.67,0,0,0,109,343.48C115.71,351.92,124.57,358.33,133.85,363.9Z"/><path class="cls-4" d="M273.22,383.19c2.57.49,5.1.93,7.67,1.37,22.91,4,46.54,7,69.39,2.41a88.15,88.15,0,0,0,29.65-11.76,55.3,55.3,0,0,0,3.8-6.14c10.14-19,8.07-43.17-2.57-61.89-8.19-14.45-20.91-25.87-35.46-34.05a46,46,0,0,1-14.83,10,50.6,50.6,0,0,1-16.2,3.39,58.68,58.68,0,0,1-12,83.79C293.93,376.58,283.67,380.34,273.22,383.19Z"/><path class="cls-10" d="M410.56,318c-.33,2.32-.72,4.55-1.21,6.76C404.16,348,389.91,363.18,369.78,372c-24.15,10.51-56.78,11.81-92.08,6.92A276,276,0,0,1,243.38,372q-17.13-.69-35-3.19a348.63,348.63,0,0,1-39.43-7.65,273,273,0,0,1-38.86-2.74c-20-2.77-38.73-7.24-54.88-13.63C63,340,52.26,334.06,43.5,327a74.22,74.22,0,0,1-13.8-14.56c-8.77-12.25-13-27.09-11.37-44.79.09-1.28.26-2.55.45-3.87,2.75-19.86,13.15-39.16,29.84-54.19,11.67-82.68,88.69-161.27,201.92-145.6,113.4,15.69,166.18,112.56,154.72,195.4-.53,3.86-1.18,7.52-1.9,11.13A87.53,87.53,0,0,1,410.56,318Z"/></svg>