<?xml version="1.0" encoding="utf-8"?>
<!-- Generator: Adobe Illustrator 25.4.1, SVG Export Plug-In . SVG Version: 6.00 Build 0)  -->
<svg version="1.1" id="Capa_1" xmlns="http://www.w3.org/2000/svg" xmlns:xlink="http://www.w3.org/1999/xlink" x="0px" y="0px"
	 viewBox="0 0 927.2 784" style="enable-background:new 0 0 927.2 784;" xml:space="preserve">
<style type="text/css">
	.st0{fill:none;stroke:#727176;stroke-width:47.0484;stroke-linecap:round;stroke-linejoin:round;stroke-miterlimit:10;}
	.st1{fill:#727176;}
	.st2{fill:#FFFFFF;stroke:#727176;stroke-width:47.0484;stroke-linecap:round;stroke-linejoin:round;stroke-miterlimit:10;}
	.st3{fill:#D8D9DD;}
	.st4{fill:#FFFFFF;}
	.st5{fill:#FFFFFF;stroke:#727176;stroke-width:18.8194;stroke-linecap:round;stroke-linejoin:round;stroke-miterlimit:10;}
</style>
<g>
	<g>
		<g>
			<path class="st0" d="M842.6,280.7c-54.3,54.3-118.1,30-172.4-24.4c-16.2-16.2-29.7-33.2-39.3-50.5
				c-11.6-21.1-17.5-42.7-15.1-63.9c2.2-19.9,11.6-39.5,30-58c45.7-45.7,130-58.3,192.5,4.2S888.3,235,842.6,280.7z"/>
			<path class="st1" d="M793,219.7c-23.8,23.8-51.7,13.1-75.4-10.7c-7.1-7.1-13-14.5-17.2-22.1c-5.1-9.2-7.6-18.7-6.6-28
				c1-8.7,5.1-17.3,13.1-25.4c20-20,56.9-25.5,84.2,1.9S813,199.7,793,219.7z"/>
		</g>
		<g>
			<path class="st0" d="M99.3,280.6c54.3,54.3,118,30,172.4-24.3c16.2-16.2,29.7-33.2,39.3-50.5c11.7-21.1,17.5-42.7,15.1-63.9
				c-2.2-19.9-11.6-39.5-30-58c-45.7-45.7-130-58.4-192.5,4.2S53.6,234.9,99.3,280.6z"/>
			<path class="st1" d="M148.9,219.6c23.8,23.8,51.7,13.1,75.4-10.6c7.1-7.1,13-14.5,17.2-22.1c5.1-9.2,7.6-18.7,6.6-28
				c-1-8.7-5.1-17.3-13.1-25.4c-20-20-56.9-25.5-84.2,1.8S128.9,199.6,148.9,219.6z"/>
		</g>
	</g>
	<path class="st2" d="M853.6,448.8c0,8.6-0.3,17-0.9,25.1c-6,87.3-43.4,149.5-101.5,191.4c-69.9,50.4-169.6,71.4-280.4,71.4
		c-62.9,0-122.3-6.8-174.7-21.9c-39.5-11.4-75-27.5-105-49c-18.4-13.2-34.8-28.4-48.7-45.8c-32.2-40.1-51.6-91.8-54-156.9
		c-0.2-4.7-0.3-9.4-0.3-14.3C88.2,270.9,227.6,82.4,471,82.4C714.3,82.4,853.6,271,853.6,448.8z"/>
	<g>
		<g>
			<path class="st3" d="M334.5,663.4c0,18.4-4,35.8-11.2,51.4c-84.7-24.4-155.5-65.3-204.3-126.1c22-28.8,56.5-47.3,95.2-47.3
				C280.7,541.3,334.5,596,334.5,663.4z"/>
			<path class="st3" d="M607.3,663.4c0,18.4,4,35.8,11.2,51.4c84.7-24.4,155.6-65.2,204.4-126.1c-22-28.8-56.5-47.3-95.1-47.3
				C661.2,541.4,607.3,596,607.3,663.4z"/>
			<path class="st1" d="M362,471.5c-3.4,25.8-16.4,49.3-30.4,71.3c-16.6,26.1-34.9,51.2-54.8,74.9c-16.9,20.2-36.5,40.4-62.2,46.3
				c-7.7,1.8-15.6,2.1-23.4,1.7c-18.4-13.2-34.8-28.4-48.7-45.8c-32.2-40.1-51.6-91.8-54-156.9c2.5-4.6,5.2-9.2,8.2-13.5
				c23.7-35.4,59.7-61.4,98.9-78.2c24.6-10.5,51.5-17.7,78.1-14.3C326.8,363.7,369,418.3,362,471.5z"/>
			<path class="st1" d="M852.8,473.9c-6,87.3-43.4,149.5-101.5,191.4c-1.9,0.2-3.8,0.4-5.6,0.5c-8.2,0.5-16.4,0.1-24.4-1.7
				c-25.7-5.9-45.3-26.1-62.1-46.3c-19.8-23.8-38.2-48.8-54.8-74.9c-14-22-27-45.5-30.4-71.3c-6.9-53.1,35.3-107.8,88.4-114.5
				c26.6-3.4,53.4,3.8,78,14.3c39.2,16.8,75.2,42.8,98.9,78.2C844.4,457.2,849,465.4,852.8,473.9z"/>
			<circle class="st4" cx="258.3" cy="467.1" r="58.6"/>
			<circle class="st4" cx="676.3" cy="467.2" r="58.6"/>
		</g>
	</g>
	<path class="st0" d="M853.6,448.8c0,211.4-171.4,287.9-382.7,287.9c-62.9,0-122.3-6.8-174.7-21.9c-63.7-18.4-117-49.1-153.7-94.9
		c-34.5-43-54.3-99.3-54.3-171.2C88.2,270.9,227.6,82.4,471,82.4C714.3,82.4,853.6,271,853.6,448.8z"/>
	<path class="st5" d="M469.2,527c1.9,13.4,1.7,25.8-4.2,38.3c-5.6,11.7-18.5,19.1-31.6,16.3c-5.3-1.1-9.9-4.6-13.6-8.5
		c-3.7-3.9-6.1-9.2-6-14.6"/>
	<path class="st5" d="M471.4,527c-1.9,13.4-1.7,25.8,4.2,38.3c5.6,11.7,18.5,19.1,31.6,16.3c5.3-1.1,9.9-4.6,13.6-8.5
		c3.7-3.9,6.1-9.2,6-14.6"/>
	<g>
		<path class="st1" d="M483.7,543.1c-4.2,1.6-8.8,2.5-12.6,2.5c-3.2,0-6.2-0.9-9.3-1.8c-9.6-2.8-20.1-9.3-20.1-20.6
			c0-4.2,1.5-7.6,4.2-10.1c2.8-2.7,6.9-4.5,11.9-5.6c4-0.9,8.6-1.3,13.5-1.3c16.3,0,29.5,4.5,29.5,17c0,6-3.5,11.4-8.1,15.1
			C490.4,540.2,487.2,541.9,483.7,543.1z"/>
	</g>
</g>
</svg>
