<svg id="Capa_1" data-name="Capa 1" xmlns="http://www.w3.org/2000/svg" viewBox="0 0 1000 1000"><defs><style>.cls-1,.cls-6{fill:#9f9a97;}.cls-1,.cls-3,.cls-4,.cls-5,.cls-6,.cls-7,.cls-8{stroke:#68304f;}.cls-1,.cls-3{stroke-linecap:round;stroke-linejoin:round;}.cls-1,.cls-3,.cls-4,.cls-5,.cls-6{stroke-width:43px;}.cls-2{fill:#68686a;}.cls-3{fill:none;}.cls-4,.cls-8{fill:#9f9aae;}.cls-4,.cls-5,.cls-6,.cls-7,.cls-8{stroke-miterlimit:10;}.cls-5,.cls-7{fill:#807994;}.cls-7,.cls-8{stroke-width:35.06px;}</style></defs><title>trashcan</title><path class="cls-1" d="M778.83,184.72c-8.51,38.1-35.41,72.5-71.45,88.31-1.71.75-3.44,1.47-5.18,2.14-12.94,5.05-26.54,8.13-40.29,10.65-9.44,1.72-19,3.19-28.38,4.83a661.91,661.91,0,0,0-81.09,19.54q-25,7.71-49.38,17.4c-22.71,9-46.2,20.41-59.1,41.16-11.61.49-20.51-10.06-26.07-20.27-20-36.74-20.41-82.77-3.51-120.85a128.58,128.58,0,0,1,24.23-36.57c18.28-19.22,40.92-32,65.22-42.55h0c7.17-3.11,14.47-6,21.86-8.83,36.34-13.84,74.47-25.44,106.07-47.44a105.71,105.71,0,0,0,22-19.84c6.29-7.8,10.9-16.65,12.38-26.55,54-1.65,105.09,42,114.09,95.32A113,113,0,0,1,778.83,184.72Z"/><path class="cls-2" d="M778.83,184.72c-8.51,38.1-35.41,72.5-71.45,88.31-1.71.75-3.44,1.47-5.18,2.14A63,63,0,0,1,696,264.68C669.2,208.22,617,168.58,556,156.07c-13-2.67-23-8.59-30.33-16.39,36.34-13.84,74.47-25.44,106.07-47.44a105.71,105.71,0,0,0,22-19.84C704.77,97.69,747.31,136,778.83,184.72Z"/><path class="cls-2" d="M661.91,285.82c-9.44,1.72-19,3.19-28.38,4.83a661.91,661.91,0,0,0-81.09,19.54A189.07,189.07,0,0,0,439.89,240a54.14,54.14,0,0,1-25.51-12.39,128.58,128.58,0,0,1,24.23-36.57c18.28-19.22,40.92-32,65.22-42.55h0C571.64,173.85,626.17,221.45,661.91,285.82Z"/><path class="cls-3" d="M778.83,184.72c-8.51,38.1-35.41,72.5-71.45,88.31-1.71.75-3.44,1.47-5.18,2.14-12.94,5.05-26.54,8.13-40.29,10.65-9.44,1.72-19,3.19-28.38,4.83a661.91,661.91,0,0,0-81.09,19.54q-25,7.71-49.38,17.4c-22.71,9-46.2,20.41-59.1,41.16-11.61.49-20.51-10.06-26.07-20.27-20-36.74-20.41-82.77-3.51-120.85a128.58,128.58,0,0,1,24.23-36.57c18.28-19.22,40.92-32,65.22-42.55h0c7.17-3.11,14.47-6,21.86-8.83,36.34-13.84,74.47-25.44,106.07-47.44a105.71,105.71,0,0,0,22-19.84c6.29-7.8,10.9-16.65,12.38-26.55,54-1.65,105.09,42,114.09,95.32A113,113,0,0,1,778.83,184.72Z"/><path class="cls-4" d="M523.62,403.67H274.07l47.46,449.05A60.8,60.8,0,0,0,382,907.13H665.25a60.79,60.79,0,0,0,60.45-54.41l47.46-449Z"/><path class="cls-5" d="M784.69,406.94H262.55a12.47,12.47,0,0,1-12.47-12.47V332.08a12.46,12.46,0,0,1,12.47-12.46H784.69a12.46,12.46,0,0,1,12.46,12.46v62.39A12.46,12.46,0,0,1,784.69,406.94Z"/><path class="cls-6" d="M422.8,852.75a10.31,10.31,0,0,1-10.27-9.51L383.31,469.16a10.31,10.31,0,1,1,20.56-1.61l29.22,374.09a10.31,10.31,0,0,1-9.48,11.08l-.81,0Z"/><path class="cls-6" d="M624.44,852.75l-.82,0a10.31,10.31,0,0,1-9.48-11.08l29.23-374.09a10.31,10.31,0,0,1,20.56,1.61L634.71,843.24a10.31,10.31,0,0,1-10.27,9.51Z"/><path class="cls-6" d="M523.62,852.75a10.31,10.31,0,0,1-10.32-10.31V468.36a10.32,10.32,0,1,1,20.63,0V842.44a10.31,10.31,0,0,1-10.31,10.31Z"/><path class="cls-7" d="M377.52,781.07c-39,110.44-133.28,193.14-230.41,118-58.44-45.23-47.63-123.82-8.66-234.26S243.7,471.85,307.5,506.26C420.44,567.18,416.49,670.63,377.52,781.07Z"/><ellipse class="cls-8" cx="214.96" cy="695.12" rx="212.64" ry="129.5" transform="translate(-512.53 708.08) rotate(-73.84)"/><path class="cls-7" d="M194.22,763.12l-15.37-7.43a14.5,14.5,0,0,1-7.31-18.07L208.81,636a14.53,14.53,0,0,1,19.95-8.08l15.37,7.43a14.51,14.51,0,0,1,7.31,18.07L214.16,755A14.52,14.52,0,0,1,194.22,763.12Z"/></svg>