<svg data-name="Capa 1" viewBox="0 0 440 391.35" xmlns="http://www.w3.org/2000/svg">
 <title>candypanda</title>
 <g>
  <title>Layer 1</title>
  <g transform="rotate(8 220.05 198.484)" id="svg_20">
   <path id="svg_1" stroke-width="9.14px" stroke-linejoin="round" stroke-linecap="round" stroke="#772c4f" fill="none" d="m304.6,114.07s-53.6,-28.95 -84.55,-40.24" class="cls-1"/>
   <path id="svg_2" stroke-width="9.14px" stroke-linejoin="round" stroke-linecap="round" stroke="#772c4f" fill="none" d="m228.44,268.58s-60.53,6.66 -92.43,15" class="cls-1"/>
   <path id="svg_3" stroke-width="22.85px" fill="#e279a4" stroke-linejoin="round" stroke-linecap="round" stroke="#772c4f" d="m400.42,122.74c-21.37,30.59 -53.91,24.35 -84.5,3a112.45,112.45 0 0 1 -23.07,-20.84c-7.36,-9.1 -12,-18.94 -12.66,-29.27c-0.64,-9.71 2.18,-19.86 9.45,-30.27c18,-25.72 57.21,-38.93 92.44,-14.32s36.32,65.96 18.34,91.7z" class="cls-2"/>
   <path id="svg_4" fill="#b3aaf4" d="m371.5,97.78c-9.35,13.39 -23.59,10.66 -37,1.31a49.58,49.58 0 0 1 -10.07,-9.09c-3.22,-4 -5.24,-8.29 -5.54,-12.81c-0.28,-4.25 0.95,-8.69 4.14,-13.24c7.86,-11.26 25,-17 40.44,-6.27s15.89,28.85 8.03,40.1z" class="cls-3"/>
   <path id="svg_5" stroke-width="22.85px" fill="#e279a4" stroke-linejoin="round" stroke-linecap="round" stroke="#772c4f" d="m44.9,185.8c30.59,21.38 59,4.32 80.37,-26.27a112.11,112.11 0 0 0 14.5,-27.5c3.78,-11.07 4.73,-21.9 1.81,-31.84c-2.73,-9.33 -8.87,-17.9 -19.28,-25.17c-25.72,-18 -67.11,-16.88 -91.72,18.35s-11.41,74.46 14.32,92.43z" class="cls-2"/>
   <path id="svg_6" fill="#b3aaf4" d="m63.48,152.42c13.38,9.35 25.81,1.89 35.16,-11.5a48.77,48.77 0 0 0 6.35,-12c1.65,-4.84 2.07,-9.58 0.79,-13.93c-1.2,-4.08 -3.88,-7.83 -8.44,-11c-11.25,-7.91 -29.34,-7.43 -40.13,8.01s-4.99,32.56 6.27,40.42z" class="cls-3"/>
   <path id="svg_7" fill="#fff" stroke-width="22.85px" stroke-linejoin="round" stroke-linecap="round" stroke="#772c4f" d="m419.62,202.18q1.1,6.16 1.73,12.08c4.55,42.26 -8.08,75.18 -32.3,100.14c-29.15,30 -75.07,48.56 -128,58c-30.09,5.34 -59.07,7.13 -85.4,4.34c-19.85,-2.09 -38.19,-6.8 -54.37,-14.54a119,119 0 0 1 -27.19,-17.78c-18.79,-16.45 -32.45,-39.52 -39.15,-70.46c-0.49,-2.22 -0.93,-4.49 -1.34,-6.8c-15.08,-85 35.55,-187 152,-207.65s198.94,57.67 214.02,142.67z" class="cls-4"/>
   <path id="svg_8" fill="#ffdcda" d="m189.91,348.88a59.65,59.65 0 0 1 -1,25.51c-42.57,-4.5 -79.93,-18 -108.43,-43a58.08,58.08 0 0 1 41.52,-30.66c31.79,-5.64 62.19,15.92 67.91,48.15z" class="cls-5"/>
   <path id="svg_9" fill="#ffdcda" d="m320.34,325.74a59.73,59.73 0 0 0 9.7,23.62c38.43,-18.87 68.86,-44.4 87,-77.64a58.11,58.11 0 0 0 -49.52,-14.55c-31.76,5.64 -52.89,36.34 -47.18,68.57z" class="cls-5"/>
   <path id="svg_10" fill="#e279a4" d="m186.77,254.78c0.58,12.64 -3.66,25 -8.49,36.67a348.56,348.56 0 0 1 -19.84,40.48c-6.36,11.09 -14,22.43 -25.8,27.4a41.36,41.36 0 0 1 -11.06,2.82a118.83,118.83 0 0 1 -27.19,-17.78c-18.79,-16.45 -32.46,-39.52 -39.16,-70.46c0.8,-2.43 1.72,-4.83 2.75,-7.16c8.35,-18.94 23.36,-34.44 40.68,-45.78c10.88,-7.12 23.13,-12.83 36.11,-13.47c26.01,-1.28 50.82,21.27 52,47.28z" class="cls-6"/>
   <path id="svg_11" fill="#e279a4" d="m421.67,214.26c4.56,42.26 -8.08,75.18 -32.3,100.14c-0.88,0.26 -1.77,0.49 -2.66,0.7a42.48,42.48 0 0 1 -11.82,1.27c-12.76,-0.63 -23.87,-8.64 -33.65,-16.87a348.69,348.69 0 0 1 -32.56,-31.18c-8.55,-9.32 -16.78,-19.45 -20.58,-31.51c-7.83,-24.83 7.71,-54.54 32.56,-62.29c12.41,-3.86 25.88,-2.7 38.54,0.24c20.17,4.69 39.6,14.07 53.95,29a79.86,79.86 0 0 1 8.52,10.5z" class="cls-6"/>
   <circle id="svg_12" fill="#772c4f" r="28.46" cy="261.49" cx="136.81" class="cls-7"/>
   <circle id="svg_13" fill="#772c4f" r="28.46" cy="226.04" cx="336.69" class="cls-7"/>
   <path id="svg_14" stroke-width="22.85px" stroke-linejoin="round" stroke-linecap="round" stroke="#772c4f" fill="none" d="m419.94,203.18c17.93,101.08 -57.51,152.24 -158.6,170.17c-30.09,5.34 -59.07,7.13 -85.4,4.34c-32,-3.38 -60.12,-13.54 -81.55,-32.32c-20.15,-17.64 -34.4,-42.88 -40.5,-77.26c-15.08,-85 35.56,-187 152,-207.65s198.98,57.72 214.05,142.72z" class="cls-8"/>
   <path id="svg_15" fill="#fb5281" stroke-width="9.14px" stroke-linejoin="round" stroke-linecap="round" stroke="#772c4f" d="m262.15,293.2c1.84,10.34 -6.67,16.91 -11.88,17.83s-15.46,-2.31 -17.3,-12.65s5.13,-14.7 12.22,-16s15.13,0.49 16.96,10.82z" class="cls-9"/>
   <path id="svg_16" fill="#fff" stroke-width="9.14px" stroke-linejoin="round" stroke-linecap="round" stroke="#772c4f" d="m242.76,272.21c2,6.26 3,12.19 1.22,18.68c-1.68,6 -7.24,10.72 -13.71,10.49a13.17,13.17 0 0 1 -7.22,-2.92a10.17,10.17 0 0 1 -4.05,-6.46" class="cls-10"/>
   <path id="svg_17" fill="#fff" stroke-width="9.14px" stroke-linejoin="round" stroke-linecap="round" stroke="#772c4f" d="m243.79,272c0.25,6.57 1.35,12.49 5.27,18c3.66,5.1 10.49,7.57 16.49,5.13a13.24,13.24 0 0 0 5.78,-5.22a10.29,10.29 0 0 0 1.61,-7.49" class="cls-10"/>
   <path id="svg_18" fill="#772c4f" d="m251.06,278.71a17.85,17.85 0 0 1 -5.79,2.26a16.36,16.36 0 0 1 -4.58,-0.08c-4.84,-0.53 -10.39,-2.74 -11.35,-8.15a6.49,6.49 0 0 1 1.14,-5.19a12,12 0 0 1 5.2,-3.68a31.38,31.38 0 0 1 6.32,-1.77c7.8,-1.38 14.5,-0.34 15.56,5.63a9.58,9.58 0 0 1 -2.6,7.89a16.91,16.91 0 0 1 -3.9,3.09z" class="cls-7"/>
  </g>
 </g>
</svg>
