<svg data-name="Capa 1" viewBox="0 0 842.89 788.43" xmlns="http://www.w3.org/2000/svg">
<defs>
<style>.cls-1{fill:#9f9a97;stroke-miterlimit:10;}.cls-1,.cls-7,.cls-8{stroke:#68304f;}.cls-1,.cls-7{stroke-width:43px;}.cls-2{fill:#68686a;}.cls-3{fill:#fefeff;}.cls-4{fill:#68304f;}.cls-5{fill:#f8d9cb;}.cls-6{fill:#a2a2a4;}.cls-7,.cls-8{fill:none;stroke-linecap:round;stroke-linejoin:round;}.cls-8{stroke-width:19.5px;}</style>
</defs>
<path class="cls-1" d="m752.08 312.14c-48.18 48.18-104.68 26.58-152.86-21.6-14.34-14.34-26.33-29.42-34.82-44.81-33.25-60.21 3.35-115.26 48.19-153.12 28.51-24.07 59.33-46.64 94.87-58 5.2-1.66 10.74-3.09 16.07-1.92 6.18 1.36 11.07 6 15.42 10.55a236.92 236.92 0 0 1 64.31 155.53c1.2 47.92-18.58 80.77-51.18 113.37z"/>
<path class="cls-2" d="m694.28 268.33c-22.6 10.35-50.52-1.92-66.85-23.91-34.34-46.26 24.68-108.86 69.83-120.37 3.54-0.91 7.35-1.62 10.8-0.39a17 17 0 0 1 6.32 4.58c19.06 20 18.49 51.33 14.08 78.6-2.45 15.18-5.87 30.61-14.24 43.5-5.67 8.74-12.52 14.58-19.94 17.99z"/>
<path class="cls-1" d="M85,312.14c48.18,48.18,104.69,26.58,152.86-21.6,14.34-14.34,26.33-29.42,34.83-44.81,33.24-60.21-3.36-115.26-48.2-153.12-28.51-24.07-59.33-46.64-94.86-58-5.21-1.66-10.75-3.09-16.08-1.92-6.18,1.36-11.06,6-15.42,10.55A237,237,0,0,0,33.78,198.73C32.58,246.69,52.36,279.54,85,312.14Z"/>
<path class="cls-2" d="m142.77 268.33c22.59 10.35 50.52-1.92 66.84-23.91 34.34-46.26-24.68-108.86-69.83-120.37-3.54-0.91-7.35-1.62-10.79-0.39a17 17 0 0 0 -6.33 4.58c-19.06 20-18.49 51.33-14.08 78.6 2.45 15.18 5.87 30.61 14.24 43.5 5.67 8.74 12.52 14.58 19.95 17.99z"/>
<path class="cls-3" d="M771.68,487.12c0,200.94-162.9,273.74-363.84,273.74-59.82,0-116.28-6.45-166.07-20.82-60.55-17.47-111.24-46.66-146.13-90.17C62.86,609,44,555.48,44,487.12c0-169,132.46-348.24,363.83-348.24S771.68,318.15,771.68,487.12Z"/>
<path class="cls-2" d="m231.78 730.65a308.55 308.55 0 0 1 -122.54 -71.17c-13.86-13.15-26.57-27.71-35.83-44.41-12.88-23.25-18.58-49.68-24.13-75.67-3.76-17.62-7.45-36.4-1.16-53.29 7.53-20.26 27.52-32.86 46.89-42.46a430.59 430.59 0 0 1 96.58 -34.23c25.72-5.79 53-9.13 78.14-1.29s47.62 29.32 49.4 55.62c1.37 20.25-9.13 39.14-18.39 57.25-26.48 51.76-45.2 112.54-26.54 167.61 3.58 10.55 8.47 22.16 3.9 32.33-7.1 15.74-29.75 14.71-46.32 9.71z"/>
<path class="cls-2" d="m604.19 730.65a308.65 308.65 0 0 0 122.55 -71.17c13.85-13.15 26.57-27.71 35.82-44.41 12.88-23.25 18.59-49.68 24.13-75.67 3.76-17.62 7.45-36.4 1.17-53.29-7.54-20.26-27.53-32.86-46.9-42.46a430.24 430.24 0 0 0 -96.58 -34.23c-25.71-5.79-53-9.13-78.14-1.29s-47.61 29.32-49.39 55.62c-1.37 20.25 9.15 39.14 18.38 57.25 26.49 51.76 45.2 112.54 26.54 167.61-3.57 10.55-8.47 22.16-3.9 32.33 7.13 15.74 29.76 14.71 46.32 9.71z"/>
<circle class="cls-4" cx="216.42" cy="500" r="55.7"/>
<circle class="cls-4" cx="613.75" cy="500" r="55.7"/>
<path class="cls-5" d="m288.88 686.56a116.71 116.71 0 0 1 -10.62 48.84c-80.5-23.23-147.88-62-194.26-119.87a113.66 113.66 0 0 1 90.46 -45c63.19 0.02 114.42 51.97 114.42 116.03z"/>
<path class="cls-5" d="m548.17 686.56a116.86 116.86 0 0 0 10.61 48.84c80.5-23.23 147.89-62 194.27-119.87a113.7 113.7 0 0 0 -90.47 -45c-63.19 0.02-114.41 51.97-114.41 116.03z"/>
<path class="cls-6" d="M418.52,140c-19.82-.17-244,2.79-335.47,225.9,0,0,241.47-146.44,330.18,119.72l5.23,22.87h0a127.7,127.7,0,0,1,5.4-23C512.6,219.52,754,365.91,754,365.91,662.56,142.8,438.34,139.84,418.52,140Z"/>
<path class="cls-7" d="m782.36 482.48c0 200.94-162.9 273.74-363.84 273.74-59.82 0-116.28-6.45-166.07-20.82-60.55-17.47-111.24-46.66-146.13-90.17-32.79-40.88-51.63-94.39-51.63-162.75 0-169 132.45-348.25 363.83-348.25s363.84 179.28 363.84 348.25z"/>
<path class="cls-4" d="m404.19 590.26c2.3 0.57 14.85 4.83 28.36 0.24 14.82-4.16 23.05-14.89 23.05-25.14 0-15.55-16.48-21.18-36.8-21.18a79.23 79.23 0 0 0 -16.8 1.61c-6.12 1.35-11.25 3.61-14.78 7a16.65 16.65 0 0 0 -5.22 12.57c0 10.06 7.91 20.57 22.19 24.9z"/>
<line class="cls-8" x1="418.29" x2="418.29" y1="571.42" y2="626.8"/>
<path class="cls-8" d="M380.23,625.26s39,19.49,76.58-.93"/>
</svg>
